<svg width="24" height="29" viewBox="0 0 24 29" fill="none" xmlns="http://www.w3.org/2000/svg">
<path d="M19.7097 15.0378C19.7097 11.4834 22.7172 9.75178 22.8084 9.66064C21.0767 7.19989 18.4337 6.92647 17.5223 6.83533C15.335 6.56192 13.1477 8.11128 11.9628 8.11128C10.778 8.11128 9.0464 6.83533 7.13249 6.83533C4.67174 6.83533 2.39326 8.20242 1.20846 10.3897C-1.34343 14.7644 0.570486 21.1441 3.03124 24.6074C4.30718 26.3391 5.67426 28.253 7.58818 28.1618C9.41096 28.0707 10.1401 26.977 12.3274 26.977C14.5147 26.977 15.1527 28.1618 17.0666 28.0707C19.0717 28.0707 20.2565 26.3391 21.4413 24.6074C22.8995 22.6024 23.4463 20.6884 23.4463 20.5973C23.5375 20.6884 19.7097 19.3214 19.7097 15.0378Z" fill="white"/>
<path d="M16.0641 4.55694C17.0666 3.37214 17.7046 1.73164 17.5223 0C16.0641 0.0911389 14.3324 1.00253 13.2388 2.18733C12.3274 3.18986 11.5071 4.9215 11.6894 6.562C13.3299 6.65314 15.0615 5.74175 16.0641 4.55694Z" fill="white"/>
</svg>
