<svg width="1500" height="1700" viewBox="0 0 1500 1700" fill="none" xmlns="http://www.w3.org/2000/svg">
<rect width="1500" height="1700" fill="#E0E0E0"/>
<rect width="1500" height="512" fill="#FC5454"/>
<g filter="url(#filter0_d_6_225)">
<path d="M444 161.71L471.266 212.795L482.173 201.219L452.406 152.147L444 161.71Z" fill="url(#paint0_linear_6_225)"/>
<path d="M849.803 121.443L848.666 128.239L861.619 123.456L860.029 115.152L849.805 121.443H849.803Z" fill="black"/>
<path d="M773.459 75.3931L731.425 128.743L743.694 124.97L783.685 69.6039L773.461 75.3931H773.459Z" fill="url(#paint1_linear_6_225)"/>
<path d="M998.628 148.371L1008.85 142.332L1005.9 171.02L998.628 148.371Z" fill="black"/>
<path d="M934.328 166.742L943.643 169.007L955.231 162.716L945.007 158.438L934.328 166.742V166.742Z" fill="black"/>
<path d="M618.047 136.543L619.411 169.509L632.363 163.972L628.501 130.252L618.049 136.543H618.047Z" fill="url(#paint2_linear_6_225)"/>
<path d="M944.324 126.478L934.1 132.769L934.328 166.742L944.779 160.953L947.961 144.345L944.326 126.478H944.324Z" fill="url(#paint3_linear_6_225)"/>
<path d="M942.962 169.007L931.602 280.74L949.779 276.714L953.186 162.968L942.962 169.007V169.007Z" fill="black"/>
<path d="M965.001 286.025L965.457 301.124L1000.22 313.454L1010.67 307.415L976.364 277.973L941.828 274.701L931.604 280.74L965.004 286.025H965.001Z" fill="black"/>
<path d="M835.944 259.349L844.351 254.317L850.031 265.391L857.984 260.608L859.573 275.203L910.241 285.27L920.239 278.979L850.484 231.92L800.95 241.23L791.408 251.547L835.942 259.349H835.944Z" fill="black"/>
<path d="M819.81 121.948L809.587 128.239L791.41 251.55L801.634 245.511L819.13 176.307L819.81 121.95V121.948Z" fill="url(#paint4_linear_6_225)"/>
<path d="M738.923 138.556L730.742 143.338L731.423 146.358L750.736 132.769L742.33 122.702L731.423 128.741L738.92 138.556H738.923Z" fill="black"/>
<path d="M760.962 284.264L678.485 238.965L688.708 230.157L771.186 277.97L760.962 284.261V284.264Z" fill="black"/>
<path d="M686.21 115.657L673.713 141.827L686.891 137.549L696.434 109.363L686.21 115.654V115.657Z" fill="black"/>
<path d="M572.604 224.118L562.152 232.17C562.152 232.17 564.425 245.256 567.379 254.314C570.333 263.375 577.15 270.673 577.15 270.673C581.693 275.455 586.92 278.977 593.056 280.989C604.644 284.763 617.821 282.248 629.184 274.194C632.138 272.181 636.228 268.909 638.727 266.142C627.594 273.692 572.609 224.115 572.609 224.115L572.604 224.118Z" fill="url(#paint5_linear_6_225)"/>
<path d="M629.179 166.994L638.722 284.516L678.257 278.225L688.708 272.186L639.858 159.949L629.86 163.723L619.409 169.512L629.179 166.994V166.994Z" fill="black"/>
<path d="M481.49 207.762L525.569 318.239L567.377 303.392L577.6 295.842L490.805 195.178L479.898 202.475L471.264 212.792L481.487 207.76L481.49 207.762Z" fill="url(#paint6_linear_6_225)"/>
<path d="M917.513 259.854L918.194 265.391C921.829 264.886 925.464 264.384 928.873 263.126C932.736 261.615 940.917 257.589 943.868 254.569C942.504 255.074 923.418 260.608 917.511 259.854" fill="black"/>
<path d="M769.596 231.668L771.186 240.476C779.592 238.965 786.864 235.694 794.134 230.914C798.677 227.894 803.449 223.616 805.041 222.357C803.904 223.112 769.596 231.668 769.596 231.668V231.668Z" fill="black"/>
<path d="M790.274 187.88L789.818 188.384C790.046 188.384 790.274 188.132 790.274 187.88Z" fill="black"/>
<path d="M803.907 174.292L811.632 164.981L808.906 168.001V167.748L806.633 170.515L798.908 179.576L806.177 186.874L807.542 177.813L811.176 181.337L803.907 174.292V174.292Z" fill="black"/>
<path d="M803.907 174.292L811.176 181.337L813.902 162.211L811.63 164.979L803.904 174.289L803.907 174.292Z" fill="black"/>
<path d="M772.325 162.968C767.553 160.955 760.965 161.457 757.33 165.988C756.421 166.994 754.831 169.512 754.376 170.77C757.783 167.751 764.146 166.997 768.009 168.757L772.327 162.968H772.325Z" fill="black"/>
<path d="M557.378 181.589C556.923 178.57 554.197 176.052 552.835 175.298C550.562 174.039 546.246 173.787 543.292 174.544C543.748 176.557 544.429 179.074 544.657 180.081C545.793 180.333 547.838 180.585 548.975 181.087C550.339 181.841 552.61 183.352 553.065 186.624C553.746 190.65 553.521 194.676 551.929 197.698C556.247 193.167 558.29 188.135 557.381 181.592" fill="black"/>
<path d="M813.903 158.69L799.816 173.79L813.222 187.129L813.903 158.693V158.69Z" fill="black"/>
<path d="M537.041 307.703L533.86 299.651L492.054 196.472L491.145 194.459L489.328 195.465L487.964 196.219L480.466 200.245C479.33 198.232 477.512 194.708 476.376 192.443L459.561 160.985L455.243 152.681L462.512 147.649C469.329 142.866 477.054 138.339 485.688 134.31C502.503 126.508 519.543 122.23 535.222 122.23C540.449 122.23 545.445 122.734 549.991 123.489C557.717 124.495 564.986 127.262 570.894 131.793C579.756 137.329 586.8 145.886 590.663 155.95C593.845 164.254 594.526 174.069 592.48 184.136L591.344 190.175L595.887 186.651C598.841 184.134 602.023 182.121 605.43 180.612C611.338 177.845 617.474 176.334 623.607 176.334C629.74 176.334 634.967 177.593 639.966 180.108L643.148 181.619L642.92 177.593L641.556 160.733L641.328 157.966L639.055 158.72L632.011 160.733L630.874 132.045L682.678 113.674L682.222 136.071L686.085 137.077L697.445 113.169L731.3 146.388L732.665 147.899L734.029 146.388C738.572 141.605 744.253 137.579 750.388 134.812L752.887 133.553L751.069 131.036L744.933 122.732L783.795 73.1631L804.245 106.883L773.116 125.507L766.299 129.533L774.252 129.785C789.022 130.037 802.2 137.083 811.061 149.163L814.243 153.693L816.288 156.46L812.881 160.486L810.608 163.253L802.883 172.564L801.519 174.324L803.108 175.835L810.378 183.133L813.104 185.9L813.785 181.874L816.511 162.749L817.192 157.716L817.873 152.684L821.963 124.248H860.59L860.818 122.235L861.499 117.453H895.126L903.307 174.327L903.762 178.1L906.488 175.835C909.896 173.068 913.533 171.053 917.395 169.292C922.622 167.027 927.847 166.02 933.302 166.02C939.663 166.02 945.798 167.531 951.025 170.803C951.253 170.803 951.253 171.055 951.706 171.308L954.204 172.314L954.432 169.295L955.113 163.004L955.341 160.991L953.524 160.486L946.707 158.725L946.479 129.031L998.511 141.613L1002.37 163.004H1006.46L1010.55 144.632L1053.95 156.208L1009.42 304.431L977.836 293.357L977.608 279.769V277.756L975.791 277.504L944.209 272.471L946.026 254.605L946.482 250.327L943.075 252.339C941.485 253.346 939.893 254.1 938.303 254.605C933.076 256.87 927.852 257.876 922.625 257.876C921.035 257.876 919.671 257.876 918.081 257.624L915.355 257.372L915.811 260.391L918.084 275.992L871.96 266.932L869.461 243.78L868.781 236.231L865.599 242.774L860.372 254.097L850.601 234.218L847.647 228.179L846.739 234.975L844.694 250.327L804.25 243.281L807.431 222.143L808.112 217.36L804.25 219.878C797.661 224.156 789.936 227.68 781.074 229.945C777.892 230.699 774.713 231.456 771.303 231.706L769.486 231.958V274.235L689.96 230.699L687.006 229.188V270.209L651.334 275.998L649.744 258.131L649.288 253.349L646.107 256.62C641.335 261.653 636.108 265.681 630.428 268.448C624.52 271.215 618.385 272.726 612.479 272.726C606.574 272.726 600.664 271.215 595.439 268.7C585.896 263.668 578.852 254.355 575.898 242.53C574.534 236.993 574.081 231.207 574.762 225.165L575.443 218.874L571.352 223.404C568.398 226.424 565.216 229.443 561.809 232.213L560.673 233.219L561.128 234.731L573.172 285.563L575.217 294.624L567.264 297.391L544.769 305.443L537.044 307.708L537.041 307.703ZM547.04 171.055C545.903 171.055 544.767 171.055 543.405 171.308L541.815 171.56L539.542 172.064L540.223 174.582L540.679 176.093L547.04 199.496L547.721 201.762L548.629 205.033L550.902 202.768L552.492 201.257C558.853 194.966 560.898 188.675 559.536 180.621C558.628 175.838 555.446 173.575 553.401 172.569C552.036 171.563 549.538 171.058 547.04 171.058V171.055ZM720.175 171.809L716.085 176.087L705.406 187.411L703.133 189.928L706.087 191.187L717.447 195.97L720.854 197.481L720.173 193.455C719.264 188.17 719.036 182.886 719.492 177.854L720.173 171.815L720.175 171.809ZM766.527 158.723C762.209 158.723 757.893 160.736 754.939 164.512C750.396 170.049 749.487 178.353 752.666 184.896L753.575 186.657L754.939 189.424L756.984 186.906L758.349 185.395L774.027 165.765L775.163 164.254L777.209 161.737L774.483 160.478L772.665 159.724C770.392 159.219 768.575 158.717 766.529 158.717L766.527 158.723Z" fill="#F2F2F2"/>
<path d="M750.058 197.193C750.738 197.947 750.058 197.446 750.738 197.947L755.51 194.174C754.829 193.669 754.146 192.915 753.465 192.413C746.648 185.368 748.465 169.764 752.784 161.208C740.968 171.777 741.651 187.883 750.058 197.193" fill="#F2F2F2"/>
<path d="M807.542 205.999C799.589 213.297 790.727 217.827 778.913 221.099C776.415 221.853 773.687 222.357 771.416 222.357C752.558 224.37 736.88 214.808 730.972 199.456C730.291 197.695 729.608 195.682 729.155 193.667C726.429 180.58 728.699 169.004 734.607 159.694C735.288 158.687 735.743 157.933 736.424 157.176C736.197 157.429 735.743 157.681 735.516 157.931C733.243 160.196 731.197 162.461 729.608 165.228C723.7 174.289 721.427 186.114 724.156 199.201C724.611 201.214 725.064 203.227 725.973 204.99C731.881 220.591 747.785 230.154 766.417 228.141C768.915 227.889 771.416 227.387 774.142 226.63C785.958 223.358 795.045 218.828 802.77 211.53C804.588 209.77 806.633 207.757 808.45 205.741L808.223 205.489C807.767 205.741 807.542 205.741 807.542 205.994" fill="#F2F2F2"/>
<path d="M675.075 166.49L695.978 133.776L695.069 133.021L674.847 164.479L675.075 166.492V166.49Z" fill="#F2F2F2"/>
<path d="M813.903 162.211L811.176 181.337L807.542 177.813L806.177 186.874L798.908 179.576L806.633 170.515L808.906 167.748V168.001L811.632 164.981L813.905 162.214L813.903 162.211Z" fill="#F2F2F2"/>
<path d="M788 108.359L795.27 104.835L781.865 85.71L777.547 92.7552L787.998 108.357L788 108.359Z" fill="#F2F2F2"/>
<path d="M584.417 155.668C550.334 109.868 489.215 134.53 467.401 155.92L468.31 157.681C473.309 154.409 478.761 151.642 484.216 148.873C506.028 138.556 526.933 135.534 543.52 138.805C549.428 139.559 555.564 141.572 561.016 145.601C568.513 150.384 574.193 156.924 577.603 165.48C583.511 180.58 578.284 200.712 564.425 217.32C581.921 199.453 593.962 182.341 584.419 155.665L584.417 155.668Z" fill="#F2F2F2"/>
<path d="M653.719 209.018C653.491 208.264 653.491 207.258 653.264 206.501C651.446 198.951 647.356 192.912 641.903 188.884C633.269 182.341 621.001 181.082 608.957 186.619C602.596 189.638 597.141 194.421 592.598 199.958C596.005 196.686 599.868 194.168 603.958 192.156C616.001 186.366 628.27 187.877 636.904 194.421C642.357 198.447 646.447 204.488 648.264 212.038C648.492 212.792 648.72 213.798 648.72 214.555C649.176 217.575 649.401 220.344 649.401 223.364C649.173 232.172 646.219 240.981 641.448 248.528C640.767 249.787 639.858 250.793 638.95 252.052C641.676 249.285 644.176 246.515 646.219 243.243C651.218 235.694 653.945 226.885 654.4 218.079C654.4 215.06 654.172 212.041 653.719 209.018" fill="#F2F2F2"/>
<path d="M620.317 197.947C620.317 197.947 625.316 192.411 625.089 192.411C618.953 192.158 616.227 198.702 615.999 199.206C617.363 198.452 618.725 198.2 620.317 197.947Z" fill="#F2F2F2"/>
<path d="M631.905 205.749C632.133 206.756 632.361 207.51 632.361 208.517C632.361 210.028 632.133 211.284 631.452 212.542C632.361 212.038 639.633 208.012 636.904 199.96C637.132 200.465 631.677 205.749 631.905 205.749" fill="#F2F2F2"/>
<path d="M603.73 210.529C603.73 207.258 608.957 198.954 610.547 196.184C602.366 201.973 598.731 209.773 598.731 215.814C598.731 226.383 607.137 234.939 617.136 234.939C621.907 234.939 630.541 232.172 636.221 222.105C633.267 224.37 625.77 229.403 621.679 229.403C611.681 229.403 603.73 221.099 603.73 210.529Z" fill="#F2F2F2"/>
<path d="M673.941 220.092L674.169 262.621L680.305 263.126L678.94 214.555L673.941 220.092V220.092Z" fill="#F2F2F2"/>
<path d="M638.95 138.808V142.581L668.033 133.019L670.079 174.039L675.078 166.49L673.941 125.469L638.95 138.808V138.808Z" fill="#F2F2F2"/>
<path d="M726.426 153.406L699.388 125.724L695.981 133.776L720.065 158.69L726.426 153.406V153.406Z" fill="#F2F2F2"/>
<path d="M722.336 204.993L690.298 193.165L685.754 198.702L717.564 212.795C721.199 220.344 726.654 226.888 733.47 231.418C740.059 235.949 747.785 238.716 755.738 239.47V256.835L760.737 259.602L762.326 233.431L722.336 204.995V204.993Z" fill="#F2F2F2"/>
<path d="M773.686 200.213C781.64 198.2 785.955 193.669 790.046 188.637C787.092 191.404 772.55 194.928 770.052 195.682L765.28 201.471C767.325 201.471 770.96 200.967 773.686 200.213Z" fill="#F2F2F2"/>
<path d="M759.372 139.814C744.831 141.827 737.333 155.416 736.197 156.927C741.649 151.895 748.24 148.118 755.738 146.358C773.686 141.575 789.365 147.617 799.135 160.953L805.271 155.416C795.501 142.329 777.324 135.032 759.375 139.814" fill="#F2F2F2"/>
<path d="M807.997 205.497C809.815 203.986 812.769 202.226 814.586 200.213L795.273 181.087C793.683 183.1 792.547 186.372 790.729 187.883L807.997 205.5V205.497Z" fill="#F2F2F2"/>
<path d="M907.289 256.835C887.067 238.211 888.204 198.702 898.2 186.12L889.338 123.961L869.797 126.728L868.888 132.265H883.658L891.611 188.634C881.613 201.216 876.841 218.077 880.023 233.681C882.521 245.761 889.338 255.324 898.881 260.86C899.789 261.365 900.926 261.867 901.835 262.371L902.062 263.126L907.97 264.132C907.742 264.384 908.426 257.336 907.289 256.835V256.835Z" fill="#F2F2F2"/>
<path d="M829.353 133.022L828.444 138.558H850.712L857.3 178.572L862.299 173.036L857.073 130.759L829.353 133.024V133.022Z" fill="#F2F2F2"/>
<path d="M867.526 210.529L860.257 231.166L862.074 236.703L872.298 205.245L867.526 210.529V210.529Z" fill="#F2F2F2"/>
<path d="M846.168 197.695L841.169 203.232L835.717 240.476L840.944 242.489L846.171 197.695H846.168Z" fill="#F2F2F2"/>
<path d="M946.369 185.615C949.323 187.88 951.821 190.9 953.639 194.423C955.228 197.191 956.137 199.96 957.046 203.484C959.544 214.808 956.59 226.888 950.229 236.45C949.548 237.457 948.865 238.463 948.184 239.218C950.682 236.7 982.492 210.782 951.591 176.806C917.508 164.477 904.558 188.887 903.422 190.647C907.057 187.376 911.147 184.356 915.691 182.596C927.051 177.563 938.411 179.324 946.364 185.615" fill="#F2F2F2"/>
<path d="M929.329 188.132C929.329 188.385 934.328 182.596 934.328 182.596C928.192 182.848 925.238 186.12 925.694 187.628C925.238 188.132 925.013 188.887 924.785 189.388C925.922 188.634 928.42 188.13 929.329 188.13" fill="#F2F2F2"/>
<path d="M940.689 196.689C940.917 197.695 940.917 198.449 940.917 199.456C940.917 200.715 940.461 201.973 940.008 202.98C940.917 202.475 948.189 199.96 945.46 190.9C945.688 191.404 940.461 196.689 940.689 196.689Z" fill="#F2F2F2"/>
<path d="M924.557 225.124C931.374 225.377 939.099 220.846 944.552 212.542C930.691 215.814 915.923 189.893 917.285 187.378C912.058 191.656 907.287 199.708 907.062 205.497C906.606 216.066 914.559 224.623 924.557 225.127" fill="#F2F2F2"/>
<path d="M1001.13 292.316L1004.31 294.581L1044.3 161.707L1014.31 154.157L1014.08 161.959L1038.16 167.748L1001.13 292.316Z" fill="#F2F2F2"/>
<path d="M953.641 139.814L953.869 147.364L985.679 154.409L997.948 218.833L1002.95 213.297L991.131 148.118L953.641 139.814V139.814Z" fill="#F2F2F2"/>
<path d="M978.179 213.297L969.317 268.158L974.316 269.919L983.178 207.76L978.179 213.297Z" fill="#F2F2F2"/>
<path d="M565.332 288.29L550.562 228.396L545.11 232.674L558.971 289.801L565.332 288.29Z" fill="#F2F2F2"/>
<path d="M561.469 198.449C558.062 202.475 550.337 210.277 546.018 213.297L543.292 203.986L537.612 183.35L533.977 169.509L530.342 174.541L533.977 188.382L539.657 208.766L542.384 218.077C548.519 214.303 557.153 206.249 561.469 198.447" fill="#F2F2F2"/>
<path d="M779.705 162.247C771.752 154.195 759.483 154.697 752.213 163.505C744.943 172.314 745.396 185.903 753.35 193.954C754.03 194.708 754.714 195.213 755.395 195.715L781.069 163.503C780.613 163.25 780.16 162.749 779.705 162.244V162.247ZM755.62 184.896C753.122 179.864 753.575 173.32 757.438 168.79C761.072 164.512 766.527 163.253 771.298 165.266L755.62 184.896Z" fill="black"/>
<path d="M945.46 191.152C945.688 192.158 945.688 193.165 945.688 194.171C945.46 200.21 940.461 204.74 934.328 204.488C928.192 204.236 923.421 199.203 923.649 193.165C923.877 187.628 928.42 183.097 933.872 182.848C932.736 182.596 931.599 182.343 930.465 182.343C920.242 181.839 912.061 189.893 911.608 199.708C911.152 210.277 918.877 219.086 928.876 219.338C939.099 219.843 947.28 211.788 947.733 201.219C948.414 197.695 947.278 194.174 945.46 191.152" fill="black"/>
<path d="M637.358 203.232C637.358 209.271 632.358 214.053 626.451 214.053C620.543 214.053 615.543 209.271 615.543 203.232C615.543 197.695 619.862 192.915 625.542 192.411C624.405 192.158 623.269 192.158 622.135 192.158C611.911 192.158 603.958 200.462 603.958 210.529C603.958 221.099 611.911 229.403 621.907 229.403C631.903 229.403 640.084 221.099 640.084 210.529C640.084 206.756 638.947 203.484 637.13 200.462C637.13 201.216 637.358 202.223 637.358 203.229" fill="url(#paint7_linear_6_225)"/>
<path d="M1008.74 142.367L1004.19 163.004L1000.1 140.102L944.209 126.513L944.664 160.991L953.07 163.004L952.39 169.295C952.39 169.295 952.162 169.295 952.162 169.042C941.71 163.004 928.758 162.247 916.717 167.531C912.627 169.292 908.764 171.557 905.357 174.327L896.951 115.44H859.914L859.005 122.235H819.926L815.382 152.434L812.2 147.904C802.658 135.07 789.024 128.025 773.802 127.52L806.976 107.89L783.795 69.6392L741.987 122.99L749.257 132.804C742.668 135.824 736.988 139.85 732.216 144.885L696.316 109.653L683.819 136.076L684.275 110.407L628.153 130.287L629.742 163.505L639.285 160.738L640.649 177.599C629.742 172.062 616.565 172.314 604.521 178.103C600.887 179.864 597.477 181.877 594.523 184.394C596.568 174.077 596.113 164.01 592.478 154.952C588.387 144.383 580.89 135.322 572.028 129.788C565.667 125.005 558.167 122.238 550.217 121.232C530.903 117.458 507.5 121.232 484.552 132.053C476.145 136.079 468.192 140.609 461.148 145.642L452.286 151.933L457.739 162L474.553 193.707L479.78 203.27L488.87 198.238L490.234 197.484L532.042 300.66L536.133 310.475L545.448 307.203L567.943 299.152L577.941 295.628L575.443 284.554L563.399 233.721C566.806 230.954 569.988 227.932 572.942 224.661C572.261 230.699 572.714 236.99 574.078 242.779C577.26 255.109 584.53 264.924 594.756 270.209C605.663 275.998 619.068 275.998 631.337 270.209C637.473 267.189 643.153 263.164 647.696 257.879L649.286 278.263L688.821 271.72V232.463L771.298 277.761V234.226C774.706 233.974 777.887 233.219 781.297 232.465C790.386 229.948 798.112 226.676 805.154 222.148L801.746 245.552L846.281 253.354L848.779 235.487L860.367 259.395L867.411 244.296L869.91 269.21L920.352 279.025L917.626 260.152C924.442 260.907 931.712 259.9 938.756 257.133C940.346 256.379 942.164 255.622 943.528 254.615L941.483 274.747L975.11 280.032L975.338 295.384L1010.33 307.464L1056 155.215L1008.74 142.381L1008.74 142.367ZM811.517 165.017L813.79 162.249L811.064 181.375L803.794 174.077L811.519 165.017H811.517ZM781.98 86.5021L794.249 104.873L759.257 123.999L756.759 119.973C756.759 120.225 781.98 86.5021 781.98 86.5021V86.5021ZM550.447 228.431L564.308 287.82L541.813 295.872L495.461 181.123C492.963 182.634 488.191 185.148 484.101 187.414L467.286 155.956C473.875 151.173 481.372 147.147 489.098 143.374C510.909 133.057 531.815 130.035 548.402 133.306C554.309 134.061 560.445 136.073 565.897 140.102C573.395 144.885 579.075 151.425 582.485 159.982C590.665 180.618 577.258 210.312 550.447 228.431ZM654.283 217.862C654.055 226.671 651.101 235.479 646.102 243.026C641.33 250.324 634.969 256.113 627.244 259.886C607.703 269.197 588.165 259.886 582.938 239.25C577.938 219.371 589.754 195.715 608.612 186.654C620.655 180.865 632.924 182.376 641.558 188.919C647.01 192.945 651.101 198.986 652.918 206.536C653.146 207.29 653.374 208.297 653.374 209.054C654.283 212.073 654.283 215.092 654.283 217.862ZM760.845 259.889L678.82 214.591L679.048 262.152L657.917 265.423L656.328 245.793C662.917 233.464 665.19 218.614 661.78 205.277C659.963 197.98 656.553 191.437 651.782 186.404L648.828 146.39L639.285 149.157L638.83 139.09L672.912 127.767L674.958 166.522L699.951 127.517L724.716 153.438L690.408 193.452L722.674 207.545C726.309 215.095 731.763 221.386 738.58 226.169C745.169 230.699 752.894 233.466 760.847 234.221V259.889H760.845ZM718.356 193.957L706.995 189.174L717.675 177.851C716.994 183.135 717.219 188.42 718.356 193.957V193.957ZM807.424 206.037C799.471 213.335 790.609 217.865 778.796 221.137C776.298 221.891 773.569 222.395 771.298 222.395C752.441 224.408 736.762 214.846 730.855 199.494C730.174 197.733 729.49 195.72 729.037 193.705C726.311 180.618 728.582 169.042 734.489 159.732C736.079 156.965 738.124 154.7 740.397 152.434C745.85 146.898 752.894 143.124 760.847 140.859C778.796 136.076 794.474 142.118 804.245 155.204L770.162 195.468C772.435 195.972 776.07 195.216 778.796 194.461C786.977 192.196 791.52 187.416 795.383 182.381L809.016 195.97L813.107 199.996C811.289 202.261 809.472 204.274 807.427 206.034L807.424 206.037ZM879.906 259.64L872.408 205.283L861.957 235.23L846.278 197.733H846.051L839.915 241.268L813.785 236.236L817.42 212.078C818.329 211.072 819.465 210.066 820.374 208.807L828.78 199.244L820.599 190.94L829.461 133.06H855.819L862.407 173.074L869.905 126.768H888.763L896.716 183.138C886.717 195.72 881.946 212.58 885.128 228.184C887.626 240.265 894.443 249.827 903.985 255.614C904.894 256.118 906.031 256.62 906.939 257.125L907.848 264.422L879.901 259.64H879.906ZM945.115 241.773C942.161 244.038 938.979 246.051 935.572 247.31C928.756 250.077 922.167 250.834 916.031 249.323C911.941 248.316 908.078 246.556 904.671 244.038C899.444 239.76 895.582 233.721 893.764 225.919C891.719 216.609 893.536 206.542 898.082 197.733C900.355 193.455 903.309 189.429 906.716 185.905C910.579 182.132 915.123 178.86 919.894 176.844C931.482 172.062 942.842 173.825 950.795 180.116C953.749 182.381 956.247 185.401 958.065 188.925C959.429 191.692 960.563 194.714 961.246 197.985C963.745 209.309 960.791 221.389 954.43 230.952C952.385 235.23 948.978 238.754 945.115 241.773V241.773ZM1004.19 293.11L984.878 286.819L983.288 207.8L973.518 268.7L952.387 264.927L953.977 247.31C967.838 234.476 975.107 214.091 971.017 195.471C969.2 187.419 965.565 180.119 960.11 174.834L961.927 154.198L953.974 151.933L954.202 140.859L990.555 148.911L1002.82 213.082L1015.32 155.454L1043.04 162.249L1004.19 293.108L1004.19 293.11Z" fill="url(#paint8_linear_6_225)"/>
<path d="M564.761 181.372C562.716 169.292 548.402 162.499 534.088 171.055L537.722 184.896L543.402 205.532L546.129 214.843C556.808 207.545 567.487 198.235 564.761 181.372V181.372ZM550.675 200.245C549.085 194.708 545.675 182.628 545.675 182.628C545.675 182.628 544.995 180.111 544.086 177.091C547.04 176.587 549.994 176.839 552.267 178.098C553.631 178.852 555.902 180.363 556.357 183.635C557.721 190.178 555.676 195.21 550.677 200.243L550.675 200.245Z" fill="black"/>
</g>
<rect y="512" width="1500" height="58" fill="#100F0F"/>
<path d="M822 541C822 583.526 789.765 618 750 618C710.235 618 678 583.526 678 541C678 498.474 710.235 464 750 464C789.765 464 822 498.474 822 541ZM692.4 541C692.4 575.021 718.188 602.6 750 602.6C781.812 602.6 807.6 575.021 807.6 541C807.6 506.979 781.812 479.4 750 479.4C718.188 479.4 692.4 506.979 692.4 541Z" fill="#100F0F"/>
<ellipse cx="749.5" cy="541.5" rx="62.5" ry="66.5" fill="#FBF6F6"/>
<path d="M796 541C796 568.062 775.405 590 750 590C724.595 590 704 568.062 704 541C704 513.938 724.595 492 750 492C775.405 492 796 513.938 796 541ZM704.92 541C704.92 567.521 725.103 589.02 750 589.02C774.897 589.02 795.08 567.521 795.08 541C795.08 514.479 774.897 492.98 750 492.98C725.103 492.98 704.92 514.479 704.92 541Z" fill="#383838"/>
<defs>
<filter id="filter0_d_6_225" x="434" y="59.6039" width="644" height="280.635" filterUnits="userSpaceOnUse" color-interpolation-filters="sRGB">
<feFlood flood-opacity="0" result="BackgroundImageFix"/>
<feColorMatrix in="SourceAlpha" type="matrix" values="0 0 0 0 0 0 0 0 0 0 0 0 0 0 0 0 0 0 127 0" result="hardAlpha"/>
<feOffset dx="6" dy="6"/>
<feGaussianBlur stdDeviation="8"/>
<feComposite in2="hardAlpha" operator="out"/>
<feColorMatrix type="matrix" values="0 0 0 0 0 0 0 0 0 0 0 0 0 0 0 0 0 0 0.25 0"/>
<feBlend mode="normal" in2="BackgroundImageFix" result="effect1_dropShadow_6_225"/>
<feBlend mode="normal" in="SourceGraphic" in2="effect1_dropShadow_6_225" result="shape"/>
</filter>
<linearGradient id="paint0_linear_6_225" x1="475.275" y1="205.787" x2="448.685" y2="161.053" gradientUnits="userSpaceOnUse">
<stop/>
<stop offset="1"/>
</linearGradient>
<linearGradient id="paint1_linear_6_225" x1="752.991" y1="109.694" x2="785.05" y2="78.6531" gradientUnits="userSpaceOnUse">
<stop/>
<stop offset="1"/>
</linearGradient>
<linearGradient id="paint2_linear_6_225" x1="626.93" y1="166.916" x2="622.706" y2="134.97" gradientUnits="userSpaceOnUse">
<stop/>
<stop offset="1"/>
</linearGradient>
<linearGradient id="paint3_linear_6_225" x1="942.606" y1="160.748" x2="940.934" y2="131.815" gradientUnits="userSpaceOnUse">
<stop/>
<stop offset="1"/>
</linearGradient>
<linearGradient id="paint4_linear_6_225" x1="846.185" y1="119.008" x2="811.232" y2="169.232" gradientUnits="userSpaceOnUse">
<stop/>
<stop offset="1"/>
</linearGradient>
<linearGradient id="paint5_linear_6_225" x1="577.902" y1="204.679" x2="602.145" y2="247.712" gradientUnits="userSpaceOnUse">
<stop/>
<stop offset="1"/>
</linearGradient>
<linearGradient id="paint6_linear_6_225" x1="499.71" y1="189.398" x2="528.062" y2="248.739" gradientUnits="userSpaceOnUse">
<stop/>
<stop offset="1"/>
</linearGradient>
<linearGradient id="paint7_linear_6_225" x1="604.926" y1="211.919" x2="641.135" y2="211.919" gradientUnits="userSpaceOnUse">
<stop/>
<stop offset="0.93"/>
<stop offset="1"/>
</linearGradient>
<linearGradient id="paint8_linear_6_225" x1="453.548" y1="191.187" x2="1057.49" y2="191.187" gradientUnits="userSpaceOnUse">
<stop/>
<stop offset="0.93"/>
<stop offset="1"/>
</linearGradient>
</defs>
</svg>
